<svg width="100" height="50" fill="none" xmlns="http://www.w3.org/2000/svg"><path d="M31.127 37.63c-.937-2.604-2.864-3.906-5.783-3.906h-.92v16.06h.92c2.256 0 3.92-.89 4.995-2.668.905-1.517 1.357-3.449 1.357-5.793-.002-1.395-.192-2.626-.57-3.693ZM15.324 37.822c.938 2.604 2.865 3.906 5.781 3.906h.921v-16.06h-.92c-2.256 0-3.92.89-4.995 2.668-.902 1.517-1.354 3.448-1.354 5.793 0 1.393.189 2.624.567 3.694ZM0 .021h12.252v4.253H4.398v2.127h6.525v4.036H4.398v2.15h7.854v4.254H0V.021ZM18.414 0h15.853l-7.926 17.183L18.414 0Zm7.927 15.056L32.89.894H19.816l6.525 14.162ZM40.6.02h12.252v4.253h-7.854V6.4h6.525v4.036h-6.526v2.15h7.855v4.254H40.599V.02ZM60.392 16.816V0h.942l11.745 11.43V0h.894v16.82l-13.581-.004ZM86.806 16.84V4.273H80.45V.02h13.582v4.253h-6.356V16.84h-.87ZM7.225 29.02c1.063 0 1.91.161 2.537.483a4.218 4.218 0 0 1 2.369 3.867 4.041 4.041 0 0 1-.629 2.187 4.462 4.462 0 0 1-1.715 1.583 4.776 4.776 0 0 1 2.199 1.595c.584.725.9 1.63.894 2.562a4.36 4.36 0 0 1-.64 2.308 4.662 4.662 0 0 1-1.704 1.655c-.372.2-.771.346-1.184.435-.435.097-1.015.145-1.74.145H.168V29.02h7.057ZM35.56 44.62c-1.264-1.104-1.889-2.76-1.873-4.966h3.94c-.017.918.257 1.619.821 2.102.564.483 1.354.725 2.369.725.837 0 1.498-.137 1.981-.41.484-.275.725-.694.725-1.258 0-.467-.245-.805-.737-1.015a6.896 6.896 0 0 0-1.462-.447 82.79 82.79 0 0 0-.894-.16 19.385 19.385 0 0 1-3.214-.887 5.603 5.603 0 0 1-2.272-1.57c-.612-.71-.918-1.644-.918-2.804s.306-2.147.918-2.96c.612-.814 1.43-1.422 2.453-1.825a9.06 9.06 0 0 1 3.347-.604c1.466 0 2.735.274 3.806.822 1.072.547 1.914 1.377 2.526 2.489.284.47.473.991.556 1.534.063.477.095.957.096 1.438H43.79c0-.87-.233-1.51-.7-1.921-.468-.41-1.193-.616-2.176-.616-.79 0-1.401.137-1.836.41-.435.274-.653.645-.653 1.112 0 .516.29.894.87 1.136.713.282 1.449.5 2.2.652 1.45.29 2.581.568 3.395.834.82.27 1.55.76 2.114 1.414.596.677.894 1.627.894 2.852 0 1.16-.322 2.158-.966 2.996-.645.838-1.494 1.479-2.55 1.922a8.746 8.746 0 0 1-3.42.664c-2.335-.003-4.136-.556-5.4-1.66ZM57.806 45.84V33.273H51.45V29.02h13.582v4.253h-6.356V45.84h-.87ZM69.6 29.02h12.252v4.253h-7.855V35.4h6.525v4.036h-6.525v2.15h7.855v4.254H69.599V29.02ZM100 45.84H87.07V29.02h6.55c1.402 0 2.545.25 3.432.75a5.22 5.22 0 0 1 2.03 1.981c.485.845.735 1.805.725 2.78a5.334 5.334 0 0 1-1.16 3.37 5.46 5.46 0 0 1-2.925 1.97l4.278 5.97ZM87.965 30.494v8.676h6.21l-6.21-8.676Zm0 14.452h10.343L94.78 40.04l-.75.024h-6.065v4.882Zm.628-15.032 6.574 9.184a4.623 4.623 0 0 0 2.682-1.62 4.482 4.482 0 0 0 1.063-2.948 4.608 4.608 0 0 0-.652-2.416 4.288 4.288 0 0 0-1.837-1.668c-.709-.355-1.635-.532-2.779-.532h-5.05Z" fill="#fff"/></svg>