<svg aria-hidden="true" style="width:0;height:0;position:absolute;overflow:hidden" xmlns="http://www.w3.org/2000/svg"><defs><symbol id="icon-logo-4" viewBox="0 0 38 32"><path d="M.08 32c4.986 0 9.924-.828 14.531-2.436s8.793-3.965 12.318-6.937c3.526-2.971 6.323-6.499 8.231-10.381S38.05 4.202 38.05 0H.08v32z"/><path d="M13.122 14.533c-.203-.565-.621-.847-1.255-.848h-.2v3.484h.2c.489 0 .851-.193 1.084-.579.196-.329.294-.748.294-1.257 0-.303-.042-.57-.124-.801zM9.693 14.574c.203.565.622.847 1.254.847h.2v-3.484h-.2c-.489 0-.851.193-1.084.579-.196.329-.294.748-.294 1.257 0 .302.041.569.123.801z"/><path fill="red" d="M6.368 6.373h2.658v.923H7.322v.461h1.416v.876H7.322V9.1h1.704v.923H6.368V6.374z"/><path d="M10.363 6.368h3.44l-1.72 3.728-1.72-3.728zm1.72 3.267 1.421-3.073h-2.837l1.416 3.073zM15.177 6.373h2.658v.923h-1.704v.461h1.416v.876h-1.416V9.1h1.704v.923h-2.658V6.374zM19.471 10.017V6.369h.205l2.548 2.48v-2.48h.194v3.649l-2.947-.001zM25.202 10.022V7.295h-1.379v-.923h2.947v.923h-1.379v2.727h-.189zM7.936 12.665c.231 0 .414.035.551.105a.917.917 0 0 1 .514.839.878.878 0 0 1-.136.475.966.966 0 0 1-.372.343c.189.067.355.187.477.346a.877.877 0 0 1 .194.556.951.951 0 0 1-.139.501c-.09.15-.217.273-.37.359a.979.979 0 0 1-.257.094c-.094.021-.22.031-.377.031H6.406v-3.649h1.531zM14.084 16.049c-.274-.239-.41-.599-.406-1.078h.855c-.004.199.056.351.178.456s.294.157.514.157c.182 0 .325-.03.43-.089s.157-.15.157-.273c0-.101-.053-.175-.16-.22a1.528 1.528 0 0 0-.317-.097l-.194-.035a4.18 4.18 0 0 1-.697-.192c-.19-.071-.36-.188-.493-.341s-.199-.357-.199-.608.066-.466.199-.642c.133-.177.31-.309.532-.396a1.96 1.96 0 0 1 .726-.131c.318 0 .593.059.826.178s.415.299.548.54a.903.903 0 0 1 .121.333c.014.103.021.208.021.312h-.855c0-.189-.051-.328-.152-.417s-.259-.134-.472-.134c-.171 0-.304.03-.399.089s-.142.14-.142.241c0 .112.063.194.189.246.155.061.314.108.477.142.315.063.56.123.737.181.178.059.337.165.459.307.129.147.194.353.194.619 0 .252-.07.468-.21.65s-.324.321-.553.417a1.904 1.904 0 0 1-.742.144c-.507-.001-.897-.121-1.172-.36zM18.91 16.314v-2.726h-1.379v-.923h2.947v.923h-1.379v2.726h-.189zM21.469 12.665h2.658v.923h-1.704v.461h1.416v.876h-1.416v.467h1.704v.923h-2.658v-3.649zM28.065 16.314H25.26v-3.649h1.421c.304 0 .552.054.745.163.184.1.336.249.44.43.105.183.16.392.157.603.003.265-.086.524-.252.731a1.177 1.177 0 0 1-.634.427l.928 1.295zm-2.612-3.33v1.882h1.348l-1.348-1.882zm0 3.136h2.244l-.765-1.064-.163.005h-1.316v1.059zm.137-3.262 1.426 1.992c.229-.046.435-.17.582-.351a.978.978 0 0 0 .231-.64.997.997 0 0 0-.142-.524.935.935 0 0 0-.398-.362c-.154-.077-.355-.115-.603-.115H25.59z"/></symbol><symbol id="icon-logo-6" viewBox="0 0 64 32"><path d="M19.962 24.133c-.601-1.67-1.837-2.505-3.708-2.505h-.591v10.299h.591c1.447 0 2.514-.57 3.203-1.711.58-.973.871-2.212.871-3.716-.001-.894-.123-1.684-.365-2.368zM9.828 24.256c.601 1.67 1.837 2.505 3.708 2.505h.591V16.462h-.591c-1.447 0-2.514.57-3.203 1.71-.579.973-.868 2.211-.868 3.716 0 .893.121 1.683.364 2.369zM0 .013h7.858v2.728H2.821v1.364h4.185v2.588H2.821v1.379h5.037V10.8H0V.013zM11.809 0h10.167l-5.084 11.019L11.808 0zm5.084 9.656 4.2-9.082h-8.385l4.185 9.082zM26.037.013h7.858v2.728h-5.037v1.364h4.185v2.588h-4.185v1.379h5.037V10.8h-7.858V.013zM38.73 10.784V0h.604l7.532 7.331V0h.573v10.787l-8.71-.003zM55.671 10.8V2.741h-4.076V.013h8.71v2.728h-4.076V10.8h-.558zM4.634 18.611c.682 0 1.224.103 1.627.31A2.707 2.707 0 0 1 7.78 21.4c.003.496-.137.983-.403 1.403-.27.43-.65.78-1.1 1.015a3.063 3.063 0 0 1 1.41 1.023 2.59 2.59 0 0 1 .573 1.643 2.79 2.79 0 0 1-.411 1.48 2.992 2.992 0 0 1-1.093 1.062 2.897 2.897 0 0 1-.759.279c-.279.062-.651.093-1.116.093H.107V18.611h4.526zM22.806 28.616c-.811-.708-1.211-1.769-1.201-3.185h2.526c-.01.589.165 1.038.527 1.348s.868.465 1.519.465c.537 0 .961-.088 1.271-.263s.465-.444.465-.806c0-.3-.158-.517-.473-.651a4.443 4.443 0 0 0-.938-.287c-.31-.057-.501-.091-.573-.103-.702-.13-1.392-.32-2.061-.568a3.595 3.595 0 0 1-1.457-1.007c-.393-.455-.589-1.054-.589-1.798s.196-1.377.589-1.899c.393-.522.917-.912 1.573-1.17a5.792 5.792 0 0 1 2.147-.387c.94 0 1.754.176 2.441.527s1.227.883 1.62 1.596c.182.302.303.636.356.984.041.306.061.614.062.922h-2.526c0-.558-.15-.969-.449-1.232s-.765-.395-1.395-.395c-.506 0-.899.088-1.178.263s-.419.413-.419.713c0 .331.186.573.558.728a8.27 8.27 0 0 0 1.41.418c.93.186 1.656.364 2.178.535.526.173.995.487 1.356.907.382.434.573 1.044.573 1.829 0 .744-.207 1.385-.62 1.922s-.958.948-1.635 1.232a5.593 5.593 0 0 1-2.193.426c-1.498-.002-2.653-.356-3.464-1.064zM37.072 29.398v-8.059h-4.076v-2.728h8.71v2.728H37.63v8.059h-.558zM44.635 18.611h7.858v2.728h-5.037v1.364h4.185v2.588h-4.185v1.379h5.037v2.728h-7.858V18.611zM64.132 29.398H55.84V18.611h4.2c.899 0 1.632.16 2.201.48.543.295.993.735 1.302 1.271.312.542.472 1.157.465 1.782a3.414 3.414 0 0 1-.744 2.162 3.5 3.5 0 0 1-1.875 1.263l2.744 3.828zm-7.718-9.841v5.564h3.983l-3.983-5.564zm0 9.268h6.633l-2.263-3.146-.48.015h-3.89v3.131zm.403-9.64 4.216 5.889a2.965 2.965 0 0 0 1.72-1.038 2.881 2.881 0 0 0 .682-1.891 2.957 2.957 0 0 0-.419-1.55 2.742 2.742 0 0 0-1.178-1.069c-.455-.227-1.048-.341-1.782-.341h-3.239z"/></symbol></defs></svg>