<svg width="60" height="31" viewBox="0 0 60 31" fill="none" xmlns="http://www.w3.org/2000/svg">
<path d="M18.5954 23.2695C18.0372 21.7177 16.8884 20.9417 15.149 20.9413H14.6002V30.5133H15.149C16.4934 30.5133 17.4857 29.9834 18.1258 28.9235C18.6652 28.019 18.9349 26.8679 18.9349 25.4704C18.9336 24.6392 18.8204 23.9055 18.5954 23.2695Z" fill="white"/>
<path d="M9.17663 23.3843C9.73551 24.9361 10.8841 25.712 12.6225 25.712H13.1713V16.14H12.6225C11.2782 16.14 10.2859 16.67 9.64572 17.7298C9.10798 18.634 8.83894 19.785 8.83862 21.1829C8.83862 22.0132 8.95129 22.747 9.17663 23.3843Z" fill="white"/>
<path d="M0.0430908 0.853546H7.3459V3.38864H2.66461V4.65619H6.55368V7.06165H2.66461V8.34361H7.3459V10.8787H0.0430908V0.853546Z" fill="white"/>
<path d="M11.0184 0.841064H20.4674L15.7429 11.0823L11.0184 0.841064ZM15.7429 9.81473L19.6464 1.37401H11.8539L15.7429 9.81473Z" fill="white"/>
<path d="M24.2412 0.853058H31.544V3.38815H26.8627V4.6557H30.7518V7.06116H26.8627V8.34312H31.544V10.8782H24.2412V0.853058Z" fill="white"/>
<path d="M36.0381 10.8638V0.841064H36.5998L43.6002 7.65414V0.841064H44.1331V10.8662L36.0381 10.8638Z" fill="white"/>
<path d="M51.7817 10.8782V3.38815H47.9934V0.853058H56.0884V3.38815H52.3002V10.8782H51.7817Z" fill="white"/>
<path d="M4.34939 18.1378C4.98316 18.1378 5.4873 18.2338 5.86181 18.4259C6.29208 18.6358 6.65349 18.9642 6.90355 19.3724C7.15361 19.7807 7.28192 20.2519 7.27339 20.7305C7.27602 21.192 7.14603 21.6444 6.89889 22.0341C6.64775 22.4337 6.29477 22.7594 5.87621 22.9776C6.39595 23.1609 6.8513 23.4911 7.18697 23.9282C7.53536 24.3605 7.72364 24.8999 7.71992 25.455C7.7236 25.9402 7.59137 26.4167 7.33821 26.8306C7.0906 27.2417 6.74075 27.5816 6.32273 27.8173C6.10082 27.9364 5.86322 28.0237 5.61694 28.0766C5.35767 28.1342 5.01197 28.163 4.57985 28.163H0.143433V18.1378H4.34939Z" fill="white"/>
<path d="M21.2381 27.4356C20.4843 26.7778 20.1122 25.7911 20.1218 24.4756H22.4696C22.46 25.0229 22.6232 25.4406 22.9593 25.7287C23.2954 26.0168 23.766 26.1608 24.3709 26.1608C24.8703 26.1608 25.264 26.0792 25.5521 25.916C25.8401 25.7527 25.9842 25.5031 25.9842 25.167C25.9842 24.8885 25.8377 24.6868 25.5449 24.562C25.2651 24.4412 24.9729 24.3518 24.6734 24.2955C24.3853 24.2427 24.2077 24.2107 24.1405 24.1995C23.4879 24.0788 22.847 23.9021 22.2247 23.6714C21.7024 23.4771 21.2369 23.1553 20.8708 22.7351C20.5059 22.3126 20.3234 21.7556 20.3234 21.0642C20.3234 20.3728 20.5059 19.7847 20.8708 19.2998C21.2357 18.8148 21.723 18.4523 22.3328 18.2123C22.969 17.9673 23.646 17.8451 24.3277 17.8522C25.2016 17.8522 25.9578 18.0154 26.5963 18.3419C27.2349 18.6684 27.7367 19.1629 28.1016 19.8255C28.2709 20.1057 28.3835 20.4165 28.4328 20.7401C28.4707 21.0243 28.4899 21.3106 28.4905 21.5972H26.1426C26.1426 21.0786 26.0034 20.6969 25.7249 20.4521C25.4464 20.2072 25.0143 20.0848 24.4285 20.0848C23.958 20.0848 23.5931 20.1664 23.3338 20.3296C23.0746 20.4929 22.9449 20.7137 22.9449 20.9922C22.9449 21.2995 23.1178 21.5252 23.4635 21.6692C23.8882 21.837 24.3268 21.9672 24.7742 22.0581C25.6385 22.231 26.3131 22.3966 26.798 22.555C27.2869 22.7162 27.7226 23.0075 28.0583 23.3977C28.4136 23.801 28.5913 24.3675 28.5913 25.0973C28.5913 25.7887 28.3992 26.3841 28.0151 26.8834C27.631 27.3828 27.1245 27.7645 26.4955 28.0286C25.8496 28.296 25.1564 28.4307 24.4574 28.4247C23.065 28.4231 21.9919 28.0934 21.2381 27.4356Z" fill="white"/>
<path d="M34.4967 28.163V20.6729H30.7085V18.1378H38.8035V20.6729H35.0153V28.163H34.4967Z" fill="white"/>
<path d="M41.526 18.1378H48.8288V20.6729H44.1475V21.9405H48.0366V24.3459H44.1475V25.6279H48.8288V28.163H41.526V18.1378Z" fill="white"/>
<path d="M59.6456 28.163H51.9395V18.1378H55.8429C56.6784 18.1378 57.3601 18.2867 57.8883 18.5843C58.3929 18.8588 58.8117 19.2676 59.0982 19.7655C59.3875 20.2692 59.5367 20.8411 59.5303 21.4219C59.5372 22.1512 59.293 22.8606 58.839 23.4313C58.4038 24.0045 57.7908 24.4173 57.0961 24.6052L59.6456 28.163ZM52.4724 19.0165V24.1875H56.1742L52.4724 19.0165ZM52.4724 27.63H58.6373L56.5343 24.706L56.0878 24.7204H52.4724V27.63ZM52.8469 18.6708L56.7648 24.1443C57.3938 24.0185 57.9593 23.6772 58.3636 23.1792C58.7795 22.6888 59.0045 22.0649 58.9974 21.4219C59.0032 20.9151 58.8686 20.4166 58.6085 19.9815C58.3495 19.5496 57.9686 19.2038 57.5138 18.9877C57.0913 18.7764 56.5391 18.6708 55.8573 18.6708H52.8469Z" fill="white"/>
</svg>
