<svg xmlns="http://www.w3.org/2000/svg" style="display: none;">
<defs>
<symbol id="icon-logo-4" viewBox="0 0 38 32">
<path d="M0.080 32c4.986 0 9.924-0.828 14.531-2.436s8.793-3.965 12.318-6.937c3.526-2.971 6.323-6.499 8.231-10.381s2.89-8.044 2.89-12.246h-37.97v32z"></path>
<path d="M13.122 14.533c-0.203-0.565-0.621-0.847-1.255-0.848h-0.2v3.484h0.2c0.489 0 0.851-0.193 1.084-0.579 0.196-0.329 0.294-0.748 0.294-1.257-0-0.303-0.042-0.57-0.124-0.801z"></path>
<path d="M9.693 14.574c0.203 0.565 0.622 0.847 1.254 0.847h0.2v-3.484h-0.2c-0.489 0-0.851 0.193-1.084 0.579-0.196 0.329-0.294 0.748-0.294 1.257 0 0.302 0.041 0.569 0.123 0.801z"></path>
<path fill="red" d="M6.368 6.373h2.658v0.923h-1.704v0.461h1.416v0.876h-1.416v0.467h1.704v0.923h-2.658v-3.649z"></path>
<path d="M10.363 6.368h3.44l-1.72 3.728-1.72-3.728zM12.083 9.635l1.421-3.073h-2.837l1.416 3.073z"></path>
<path d="M15.177 6.373h2.658v0.923h-1.704v0.461h1.416v0.876h-1.416v0.467h1.704v0.923h-2.658v-3.649z"></path>
<path d="M19.471 10.017v-3.648h0.205l2.548 2.48v-2.48h0.194v3.649l-2.947-0.001z"></path>
<path d="M25.202 10.022v-2.727h-1.379v-0.923h2.947v0.923h-1.379v2.727h-0.189z"></path>
<path d="M7.936 12.665c0.231 0 0.414 0.035 0.551 0.105 0.157 0.076 0.288 0.196 0.379 0.345s0.138 0.32 0.135 0.494c0.001 0.168-0.046 0.333-0.136 0.475-0.091 0.145-0.22 0.264-0.372 0.343 0.189 0.067 0.355 0.187 0.477 0.346 0.127 0.157 0.195 0.354 0.194 0.556 0.001 0.177-0.047 0.35-0.139 0.501-0.090 0.15-0.217 0.273-0.37 0.359-0.081 0.043-0.167 0.075-0.257 0.094-0.094 0.021-0.22 0.031-0.377 0.031h-1.615v-3.649h1.531z"></path>
<path d="M14.084 16.049c-0.274-0.239-0.41-0.599-0.406-1.078h0.855c-0.004 0.199 0.056 0.351 0.178 0.456s0.294 0.157 0.514 0.157c0.182 0 0.325-0.030 0.43-0.089s0.157-0.15 0.157-0.273c0-0.101-0.053-0.175-0.16-0.22-0.102-0.044-0.208-0.076-0.317-0.097-0.105-0.019-0.17-0.031-0.194-0.035-0.238-0.044-0.471-0.108-0.697-0.192-0.19-0.071-0.36-0.188-0.493-0.341s-0.199-0.357-0.199-0.608 0.066-0.466 0.199-0.642c0.133-0.177 0.31-0.309 0.532-0.396 0.232-0.089 0.478-0.134 0.726-0.131 0.318 0 0.593 0.059 0.826 0.178s0.415 0.299 0.548 0.54c0.062 0.102 0.103 0.215 0.121 0.333 0.014 0.103 0.021 0.208 0.021 0.312h-0.855c0-0.189-0.051-0.328-0.152-0.417s-0.259-0.134-0.472-0.134c-0.171 0-0.304 0.030-0.399 0.089s-0.142 0.14-0.142 0.241c0 0.112 0.063 0.194 0.189 0.246 0.155 0.061 0.314 0.108 0.477 0.142 0.315 0.063 0.56 0.123 0.737 0.181 0.178 0.059 0.337 0.165 0.459 0.307 0.129 0.147 0.194 0.353 0.194 0.619 0 0.252-0.070 0.468-0.21 0.65s-0.324 0.321-0.553 0.417c-0.235 0.097-0.487 0.146-0.742 0.144-0.507-0.001-0.897-0.121-1.172-0.36z"></path>
<path d="M18.91 16.314v-2.726h-1.379v-0.923h2.947v0.923h-1.379v2.726h-0.189z"></path>
<path d="M21.469 12.665h2.658v0.923h-1.704v0.461h1.416v0.876h-1.416v0.467h1.704v0.923h-2.658v-3.649z"></path>
<path d="M28.065 16.314h-2.805v-3.649h1.421c0.304 0 0.552 0.054 0.745 0.163 0.184 0.1 0.336 0.249 0.44 0.43 0.105 0.183 0.16 0.392 0.157 0.603 0.003 0.265-0.086 0.524-0.252 0.731-0.158 0.209-0.381 0.359-0.634 0.427l0.928 1.295zM25.453 12.984v1.882h1.348l-1.348-1.882zM25.453 16.12h2.244l-0.765-1.064-0.163 0.005h-1.316v1.059zM25.59 12.858l1.426 1.992c0.229-0.046 0.435-0.17 0.582-0.351 0.151-0.178 0.233-0.406 0.231-0.64 0.002-0.184-0.047-0.366-0.142-0.524-0.094-0.157-0.233-0.283-0.398-0.362-0.154-0.077-0.355-0.115-0.603-0.115h-1.096z"></path>
</symbol>

<symbol id="icon-logo-6" viewBox="0 0 64 32">
<path d="M19.962 24.133c-0.601-1.67-1.837-2.505-3.708-2.505h-0.591v10.299h0.591c1.447 0 2.514-0.57 3.203-1.711 0.58-0.973 0.871-2.212 0.871-3.716-0.001-0.894-0.123-1.684-0.365-2.368z"></path>
<path d="M9.828 24.256c0.601 1.67 1.837 2.505 3.708 2.505h0.591v-10.299h-0.591c-1.447 0-2.514 0.57-3.203 1.71-0.579 0.973-0.868 2.211-0.868 3.716 0 0.893 0.121 1.683 0.364 2.369z"></path>
<path d="M0 0.013h7.858v2.728h-5.037v1.364h4.185v2.588h-4.185v1.379h5.037v2.728h-7.858v-10.787z"></path>
<path d="M11.809 0h10.167l-5.084 11.019-5.084-11.019zM16.893 9.656l4.2-9.082h-8.385l4.185 9.082z"></path>
<path d="M26.037 0.013h7.858v2.728h-5.037v1.364h4.185v2.588h-4.185v1.379h5.037v2.728h-7.858v-10.787z"></path>
<path d="M38.73 10.784v-10.784h0.604l7.532 7.331v-7.331h0.573v10.787l-8.71-0.003z"></path>
<path d="M55.671 10.8v-8.059h-4.076v-2.728h8.71v2.728h-4.076v8.059h-0.558z"></path>
<path d="M4.634 18.611c0.682 0 1.224 0.103 1.627 0.31 0.463 0.226 0.852 0.579 1.121 1.018s0.407 0.946 0.398 1.461c0.003 0.496-0.137 0.983-0.403 1.403-0.27 0.43-0.65 0.78-1.1 1.015 0.559 0.197 1.049 0.553 1.41 1.023 0.375 0.465 0.577 1.046 0.573 1.643 0.004 0.522-0.138 1.035-0.411 1.48-0.266 0.442-0.643 0.808-1.093 1.062-0.239 0.128-0.494 0.222-0.759 0.279-0.279 0.062-0.651 0.093-1.116 0.093h-4.774v-10.787h4.526z"></path>
<path d="M22.806 28.616c-0.811-0.708-1.211-1.769-1.201-3.185h2.526c-0.010 0.589 0.165 1.038 0.527 1.348s0.868 0.465 1.519 0.465c0.537 0 0.961-0.088 1.271-0.263s0.465-0.444 0.465-0.806c0-0.3-0.158-0.517-0.473-0.651-0.301-0.13-0.615-0.226-0.938-0.287-0.31-0.057-0.501-0.091-0.573-0.103-0.702-0.13-1.392-0.32-2.061-0.568-0.562-0.209-1.063-0.555-1.457-1.007-0.393-0.455-0.589-1.054-0.589-1.798s0.196-1.377 0.589-1.899c0.393-0.522 0.917-0.912 1.573-1.17 0.685-0.264 1.413-0.395 2.147-0.387 0.94 0 1.754 0.176 2.441 0.527s1.227 0.883 1.62 1.596c0.182 0.302 0.303 0.636 0.356 0.984 0.041 0.306 0.061 0.614 0.062 0.922h-2.526c0-0.558-0.15-0.969-0.449-1.232s-0.765-0.395-1.395-0.395c-0.506 0-0.899 0.088-1.178 0.263s-0.419 0.413-0.419 0.713c0 0.331 0.186 0.573 0.558 0.728 0.457 0.181 0.929 0.321 1.41 0.418 0.93 0.186 1.656 0.364 2.178 0.535 0.526 0.173 0.995 0.487 1.356 0.907 0.382 0.434 0.573 1.044 0.573 1.829 0 0.744-0.207 1.385-0.62 1.922s-0.958 0.948-1.635 1.232c-0.695 0.288-1.441 0.433-2.193 0.426-1.498-0.002-2.653-0.356-3.464-1.064z"></path>
<path d="M37.072 29.398v-8.059h-4.076v-2.728h8.71v2.728h-4.076v8.059h-0.558z"></path>
<path d="M44.635 18.611h7.858v2.728h-5.037v1.364h4.185v2.588h-4.185v1.379h5.037v2.728h-7.858v-10.787z"></path>
<path d="M64.132 29.398h-8.292v-10.787h4.2c0.899 0 1.632 0.16 2.201 0.48 0.543 0.295 0.993 0.735 1.302 1.271 0.312 0.542 0.472 1.157 0.465 1.782 0.008 0.785-0.255 1.548-0.744 2.162-0.468 0.617-1.128 1.061-1.875 1.263l2.744 3.828zM56.414 19.557v5.564h3.983l-3.983-5.564zM56.414 28.825h6.633l-2.263-3.146-0.48 0.015h-3.89v3.131zM56.817 19.185l4.216 5.889c0.677-0.135 1.285-0.503 1.72-1.038 0.447-0.528 0.689-1.199 0.682-1.891 0.006-0.545-0.139-1.082-0.419-1.55-0.279-0.465-0.688-0.837-1.178-1.069-0.455-0.227-1.048-0.341-1.782-0.341h-3.239z"></path>
</symbol>

<symbol id="icon-triangle-down" viewBox="0 0 20 20">
<path d="M5 6h10l-5 9-5-9z"></path>
</symbol>

<symbol id="icon-close" viewBox="0 0 32 32">
<path d="M1.646 32c-0.422 0-0.843-0.16-1.163-0.483-0.643-0.643-0.643-1.685 0-2.328l28.707-28.707c0.643-0.643 1.685-0.643 2.328 0s0.643 1.685 0 2.329l-28.707 28.706c-0.323 0.321-0.744 0.483-1.165 0.483z"></path>
<path d="M30.355 32c-0.421 0-0.843-0.16-1.163-0.483l-28.709-28.706c-0.643-0.643-0.643-1.686 0-2.329s1.685-0.643 2.329 0l28.707 28.707c0.643 0.643 0.643 1.685 0 2.328-0.323 0.321-0.744 0.483-1.163 0.483z"></path>
</symbol>

</defs>
</svg>
